<svg width="145" height="54" viewBox="0 0 145 54" fill="none" xmlns="http://www.w3.org/2000/svg">
<g clip-path="url(#clip0_1418_3427)">
<mask id="mask0_1418_3427" style="mask-type:luminance" maskUnits="userSpaceOnUse" x="0" y="0" width="145" height="54">
<path d="M145 0H0V54H145V0Z" fill="white"/>
</mask>
<g mask="url(#mask0_1418_3427)">
<path d="M10.7263 32.7742C14.095 32.7742 16.2543 30.208 16.2543 26.9243C16.2543 23.5282 14.2047 21.0373 10.7263 21.0373C7.32167 21.0373 5.19867 23.49 5.19867 26.9243C5.19867 30.5475 7.32167 32.7742 10.7263 32.7742ZM0 37.7563V8.77139H5.41833V18.6971C6.44333 17.3006 8.603 16.0927 11.5317 16.0927C17.9017 16.0927 21.6363 20.9613 21.6363 26.9243C21.6363 32.8874 17.9017 37.7563 11.5317 37.7563C8.67667 37.7563 6.26 36.3974 5.41833 35.2276V37.7563H0Z" fill="#FCFCFC"/>
<path d="M32.5464 21.0373C29.0684 21.0373 27.0184 23.5281 27.0184 26.9243C27.0184 30.208 29.1781 32.7745 32.5464 32.7745C35.9511 32.7745 38.0744 30.5475 38.0744 26.9243C38.0744 23.49 35.9511 21.0373 32.5464 21.0373ZM37.8544 35.2276C37.0127 36.3973 34.5961 37.7563 31.7411 37.7563C25.3711 37.7563 21.6367 32.8873 21.6367 26.9243C21.6367 20.9612 25.3711 16.0927 31.7411 16.0927C34.6697 16.0927 36.8294 17.3006 37.8544 18.697V16.0968H43.2727V37.7563H37.8544V35.2276Z" fill="#FCFCFC"/>
<path d="M43.2734 27C43.2734 21.0373 48.2151 16.2062 54.2191 16.2062C58.4661 16.2062 62.0538 18.3572 64.1041 22.2445L59.1614 24.2446C57.9534 22.1689 56.1964 21.1498 54.2191 21.1498C51.0344 21.1498 48.7278 23.6413 48.7278 27C48.7278 30.3965 51.0711 32.8502 54.2558 32.8502C56.2328 32.8502 58.0631 31.9817 59.3444 29.8303L63.9938 31.7176C62.0538 35.7934 58.8681 37.8316 54.2558 37.8316C48.2521 37.8316 43.2734 32.963 43.2734 27Z" fill="#FCFCFC"/>
<path d="M69.5929 8.77139V26.0455L76.8832 16.0968H83.5829L75.0476 26.9893L83.5869 37.7563H77.1809L71.5696 31.1786L69.5929 33.5185V37.7563H64.1016V8.77139H69.5929Z" fill="#FCFCFC"/>
<path d="M94.8516 37.7563H97.5806L97.6169 26.2836C97.6169 21.739 99.8139 20.7928 101.498 20.7928C103.548 20.7928 105.378 21.7771 105.378 24.9962V37.7563H110.906V25.7154C110.943 21.739 113.249 20.7928 114.75 20.7928C116.873 20.7928 118.667 21.7771 118.667 24.9962V37.7563H124.195V26.9254C124.206 35.4491 131.227 37.7501 135.142 37.7501C140.698 37.7501 143.424 34.4589 144.393 33.1323C141.698 45.0907 131.299 54 118.881 54C108.125 54 98.8836 47.316 94.8516 37.7563ZM144.999 29.021C144.905 30.327 144.721 31.6072 144.453 32.8554L140.303 30.381C139.681 31.0995 138.18 32.7993 135.142 32.7993C134.043 32.7993 130.309 32.422 129.65 29.021H144.999ZM94.9139 16.0968C98.9779 6.61586 108.18 0 118.881 0C131.637 0 142.263 9.4015 144.595 21.8521C142.799 18.0924 138.97 16.0968 135.142 16.0968C131.374 16.0968 124.207 18.3603 124.195 26.8844V24.9962C124.195 19.5807 121.633 16.0968 115.848 16.0968C113.139 16.0968 110.87 17.195 109.369 18.9371C107.977 17.1569 105.964 16.0968 102.889 16.0968C101.241 16.0968 98.9716 17.0812 97.5806 18.3689V16.0968H94.9139ZM129.797 25.0151H139.864C139.644 23.1254 137.85 21.0469 135.105 21.0469C131.957 21.0469 130.016 22.8991 129.797 25.0151Z" fill="#FCFCFC"/>
<path d="M92.1276 26.9037L83.5879 37.799V16.1371L92.1276 26.9037Z" fill="#E62A65"/>
</g>
</g>
<defs>
<clipPath id="clip0_1418_3427">
<rect width="145" height="54" fill="white"/>
</clipPath>
</defs>
</svg>
